<svg xmlns="http://www.w3.org/2000/svg" enable-background="new 0 0 24 24" viewBox="0 0 24 24" id="dribbble"><path fill="#303c42" d="M12 0C5.383 0 0 5.383 0 12s5.383 12 12 12 12-5.383 12-12S18.617 0 12 0z"></path><path fill="#ff538e" d="M19.861 5.839a9.935 9.935 0 0 1 2.134 6.069c-2.476-.569-4.754-.708-6.866-.429a37.56 37.56 0 0 0-.85-1.853c2.079-.888 3.933-2.11 5.582-3.787zM18.481 4.398a14.75 14.75 0 0 1-5.128 3.477 45.62 45.62 0 0 0-3.706-5.584A9.975 9.975 0 0 1 12 2c2.472 0 4.733.907 6.481 2.398zM7.666 3.002c1.468 1.856 2.72 3.687 3.781 5.538-2.465.723-5.45 1.126-9.202 1.286a10.024 10.024 0 0 1 5.421-6.824zM2.008 11.837c3.939-.149 7.39-.549 10.404-1.508.258.513.503 1.028.733 1.547-3.373.933-6.287 3.082-8.847 6.495A9.959 9.959 0 0 1 2 12c0-.055.007-.108.008-.163zM5.74 19.787c2.378-3.244 5.039-5.24 8.163-6.044.888 2.368 1.52 4.835 1.928 7.491A9.95 9.95 0 0 1 5.74 19.787zM17.687 20.215a39.1 39.1 0 0 0-1.79-6.807c1.814-.174 3.774-.004 5.914.513a10.014 10.014 0 0 1-4.124 6.294z"></path><linearGradient id="a" x1="3.825" x2="6.97" y1="5.887" y2="7.353" gradientUnits="userSpaceOnUse"><stop offset="0" stop-color="#fff" stop-opacity=".2"></stop><stop offset="1" stop-color="#fff" stop-opacity="0"></stop></linearGradient><path fill="url(#a)" d="M8.494 4.085c-.27-.36-.542-.721-.828-1.083a10.024 10.024 0 0 0-5.421 6.824c.446-.019.88-.042 1.305-.068a10.041 10.041 0 0 1 4.944-5.673z"></path><linearGradient id="b" x1="1.069" x2="5.508" y1="13.851" y2="15.92" gradientUnits="userSpaceOnUse"><stop offset="0" stop-color="#fff" stop-opacity=".2"></stop><stop offset="1" stop-color="#fff" stop-opacity="0"></stop></linearGradient><path fill="url(#b)" d="M3 13c0-.415.033-.822.083-1.225-.361.019-.705.047-1.075.061-.001.056-.008.109-.008.164 0 2.419.864 4.639 2.298 6.371.052-.07.107-.13.159-.199A9.932 9.932 0 0 1 3 13z"></path><linearGradient id="c" x1="9.977" x2="18.041" y1="1.582" y2="5.342" gradientUnits="userSpaceOnUse"><stop offset="0" stop-color="#fff" stop-opacity=".2"></stop><stop offset="1" stop-color="#fff" stop-opacity="0"></stop></linearGradient><path fill="url(#c)" d="M13 3a9.93 9.93 0 0 1 5.321 1.548c.052-.052.108-.097.16-.15A9.956 9.956 0 0 0 12 2a9.99 9.99 0 0 0-2.354.291c.271.352.528.704.785 1.056A9.947 9.947 0 0 1 13 3z"></path><linearGradient id="d" x1="1.125" x2="22.875" y1="6.929" y2="17.071" gradientUnits="userSpaceOnUse"><stop offset="0" stop-color="#fff" stop-opacity=".2"></stop><stop offset="1" stop-color="#fff" stop-opacity="0"></stop></linearGradient><path fill="url(#d)" d="M12 0C5.383 0 0 5.383 0 12s5.383 12 12 12 12-5.383 12-12S18.617 0 12 0z"></path></svg>